<svg width="59" height="59" viewBox="0 0 59 59" fill="none" xmlns="http://www.w3.org/2000/svg">
<path d="M47.9301 19.6396L29.5 37.6051L11.0699 19.6396C10.7406 19.318 10.2985 19.1379 9.83824 19.1379C9.37794 19.1379 8.9359 19.318 8.60662 19.6396C8.44718 19.7958 8.32051 19.9823 8.23404 20.1881C8.14757 20.3939 8.10303 20.6149 8.10303 20.8381C8.10303 21.0613 8.14757 21.2823 8.23404 21.488C8.32051 21.6938 8.44718 21.8803 8.60662 22.0365L28.2131 41.1525C28.5574 41.4881 29.0192 41.6759 29.5 41.6759C29.9808 41.6759 30.4426 41.4881 30.7869 41.1525L50.3934 22.0402C50.5539 21.8839 50.6816 21.6969 50.7687 21.4905C50.8558 21.284 50.9007 21.0622 50.9007 20.8381C50.9007 20.614 50.8558 20.3921 50.7687 20.1857C50.6816 19.9792 50.5539 19.7923 50.3934 19.6359C50.0641 19.3143 49.622 19.1342 49.1617 19.1342C48.7014 19.1342 48.2594 19.3143 47.9301 19.6359V19.6396Z" fill="white"/>
</svg>
